<svg width="534" height="333" viewBox="0 0 534 333" fill="none" xmlns="http://www.w3.org/2000/svg">
<g clip-path="url(#clip0_1_2)" filter="url(#filter0_d_1_2)">
<rect width="534" height="333.6" rx="48.6" fill="white"/>
<rect x="534.309" y="333.286" width="534" height="333.6" rx="48.6" transform="rotate(-180 534.309 333.286)" fill="#232343"/>
<rect x="534.309" y="333.286" width="534" height="333.6" rx="5" transform="rotate(-180 534.309 333.286)" fill="#232343"/>
<path fill-rule="evenodd" clip-rule="evenodd" d="M-42.0856 -231C-42.0856 -231 -128.297 -42.3114 38.6212 77.0059C205.539 196.323 370.101 183.338 453.705 202.951C537.309 222.563 620.258 270.669 663.575 310.486C706.893 350.304 527.486 -61.1129 527.486 -61.1129L-257 -84.0675L-42.0856 -231Z" fill="white"/>
<path d="M0 32H534V95H0V32Z" fill="#161039"/>
</g>
<defs>
<filter id="filter0_d_1_2" x="-337" y="-241" width="1208" height="1008" filterUnits="userSpaceOnUse" color-interpolation-filters="sRGB">
<feFlood flood-opacity="0" result="BackgroundImageFix"/>
<feColorMatrix in="SourceAlpha" type="matrix" values="0 0 0 0 0 0 0 0 0 0 0 0 0 0 0 0 0 0 127 0" result="hardAlpha"/>
<feOffset dy="96"/>
<feGaussianBlur stdDeviation="168.5"/>
<feColorMatrix type="matrix" values="0 0 0 0 0.145098 0 0 0 0 0.121569 0 0 0 0 0.215686 0 0 0 0.2 0"/>
<feBlend mode="normal" in2="BackgroundImageFix" result="effect1_dropShadow_1_2"/>
<feBlend mode="normal" in="SourceGraphic" in2="effect1_dropShadow_1_2" result="shape"/>
</filter>
<clipPath id="clip0_1_2">
<rect width="534" height="334" fill="white"/>
</clipPath>
</defs>
</svg>
