<svg width="534" height="334" viewBox="0 0 534 334" fill="none" xmlns="http://www.w3.org/2000/svg">
<g clip-path="url(#clip0_1_2)" filter="url(#filter0_d_1_2)">
<rect width="534" height="333.6" rx="48.6" fill="#232343"/>
<rect width="534" height="333.6" fill="#232343"/>
<path fill-rule="evenodd" clip-rule="evenodd" d="M480.463 370.782C480.463 370.782 784.784 125.282 567.689 246.4C350.595 367.518 349.802 164.911 265.84 164.911C181.878 164.911 208.246 237.968 94 234.4C-20.2461 230.832 -1.37357 403.118 202.48 470.185C406.334 537.252 480.463 370.782 480.463 370.782Z" fill="#97708D"/>
<path fill-rule="evenodd" clip-rule="evenodd" d="M-72.9963 365.185C-72.9963 365.185 -46.2636 336.295 -35.2756 318.253C17.6359 231.377 64.0032 175.683 112.808 176.963C201.219 179.281 202.312 310.379 327.222 310.379C452.133 310.379 448.997 172.379 530.94 172.379C612.883 172.379 486.239 410.588 486.239 410.588L104.73 403.297L-72.9963 365.185Z" fill="#C6C6E8"/>
<path fill-rule="evenodd" clip-rule="evenodd" d="M-57.4862 334.404C-57.4862 334.404 44.8215 322.374 91.1672 240.284C122.807 184.241 182.1 167.223 223.01 231.685C235.436 251.264 256.185 286.848 277.384 286.42C298.583 285.992 313.34 288.257 324.508 288.032C386.847 286.773 395.032 215.947 462.45 214.586C530.497 213.212 544.503 289.769 625.219 315.996C705.935 342.222 810.964 321.402 644.67 382.149C478.377 442.896 -57.4862 334.404 -57.4862 334.404Z" fill="#D6AECC"/>
<path fill-rule="evenodd" clip-rule="evenodd" d="M167 342.889C249.058 342.889 258.887 268.926 312.284 268.702C367.419 268.471 373.318 341.751 483.005 341.689C592.692 341.626 587.154 400.241 647.317 448.96C707.48 497.68 325.613 424.263 325.613 424.263C325.613 424.263 50.7693 342.889 167 342.889Z" fill="white"/>
<path d="M0 32H534V95H0V32Z" fill="#161039"/>
</g>
<defs>
<filter id="filter0_d_1_2" x="-337" y="-241" width="1208" height="1008" filterUnits="userSpaceOnUse" color-interpolation-filters="sRGB">
<feFlood flood-opacity="0" result="BackgroundImageFix"/>
<feColorMatrix in="SourceAlpha" type="matrix" values="0 0 0 0 0 0 0 0 0 0 0 0 0 0 0 0 0 0 127 0" result="hardAlpha"/>
<feOffset dy="96"/>
<feGaussianBlur stdDeviation="168.5"/>
<feColorMatrix type="matrix" values="0 0 0 0 0.145098 0 0 0 0 0.121569 0 0 0 0 0.215686 0 0 0 0.2 0"/>
<feBlend mode="normal" in2="BackgroundImageFix" result="effect1_dropShadow_1_2"/>
<feBlend mode="normal" in="SourceGraphic" in2="effect1_dropShadow_1_2" result="shape"/>
</filter>
<clipPath id="clip0_1_2">
<rect width="534" height="334" fill="white"/>
</clipPath>
</defs>
</svg>
