<svg width="534" height="334" viewBox="0 0 534 334" fill="none" xmlns="http://www.w3.org/2000/svg">
<g clip-path="url(#clip0_1_2)" filter="url(#filter0_d_1_2)">
<rect width="534" height="333.6" rx="48.6" fill="#232343"/>
<rect width="534" height="333.6" fill="#232343"/>
<path fill-rule="evenodd" clip-rule="evenodd" d="M33.5427 344.884C33.5427 344.884 -152.116 456.86 7.38961 203.344C166.895 -50.1713 213.493 253.855 376.566 271.245C539.639 288.636 502.946 115.302 586.199 152.445C669.452 189.589 569.59 446.288 569.59 446.288L61.3031 436.792L33.5427 344.884Z" fill="#35356A"/>
<path fill-rule="evenodd" clip-rule="evenodd" d="M340.759 281.568C340.759 281.568 183.462 125.847 299.572 125.847C353.485 125.847 364.771 67.0422 436.816 67.0422C514.597 67.0422 519.535 135.714 632.939 136.387C793.18 137.337 810.162 51.9857 893.415 89.1295C976.668 126.273 876.806 382.972 876.806 382.972L368.519 373.476L340.759 281.568Z" fill="#404065"/>
<path fill-rule="evenodd" clip-rule="evenodd" d="M-218.321 485.5C-218.321 485.5 -385.679 69.8929 -116.037 171.039C18.8389 221.633 89.8602 143.346 173.935 143.346C258.01 143.346 259.428 93.9117 310.771 93.9117C368.037 93.9117 359.557 149.813 460.412 149.813C561.266 149.813 720.736 240.14 516.883 307.207C313.029 374.274 -218.321 485.5 -218.321 485.5Z" fill="#4F3F5A"/>
<path fill-rule="evenodd" clip-rule="evenodd" d="M-461.104 469.569C-461.104 469.569 -600.327 21.6997 -330.686 122.846C-61.0444 223.992 -27.5997 66.5796 56.3619 66.5796C140.324 66.5796 137.654 127.687 237.926 160.267C338.197 192.847 477.954 224.209 274.1 291.276C70.2465 358.344 -461.104 469.569 -461.104 469.569Z" fill="#4F3F5A"/>
<path fill-rule="evenodd" clip-rule="evenodd" d="M77.5123 300.768C77.5123 300.768 -110.196 440.999 49.3087 187.484C95.7171 113.723 136.067 96.5036 169.01 96.346C249.289 95.962 288.919 226.754 404.545 239.084C567.618 256.474 546.915 71.1856 630.168 108.329C713.421 145.473 613.559 402.172 613.559 402.172L105.273 392.676L77.5123 300.768Z" fill="#404065"/>
<path fill-rule="evenodd" clip-rule="evenodd" d="M555.034 345.284C555.034 345.284 740.692 457.26 581.187 203.744C534.826 130.058 484.517 134.875 451.6 134.664C371.267 134.149 327.685 259.31 212.01 271.645C48.9373 289.036 85.6306 115.702 2.37768 152.845C-80.8753 189.989 18.9867 446.688 18.9867 446.688L527.273 437.192L555.034 345.284Z" fill="#7D7DB4"/>
<path fill-rule="evenodd" clip-rule="evenodd" d="M480.463 370.782C480.463 370.782 784.784 125.282 567.689 246.4C350.595 367.518 349.802 164.911 265.84 164.911C181.878 164.911 208.246 237.968 94 234.4C-20.2461 230.832 -1.37357 403.118 202.48 470.185C406.334 537.252 480.463 370.782 480.463 370.782Z" fill="#97708D"/>
<path fill-rule="evenodd" clip-rule="evenodd" d="M-66.0445 375.143C-66.0445 375.143 -39.3119 346.253 -28.3238 328.211C24.5876 241.335 70.955 185.641 119.76 186.921C208.17 189.24 209.264 320.338 334.174 320.338C459.085 320.338 455.949 182.338 537.892 182.338C619.835 182.338 493.191 420.546 493.191 420.546L111.682 413.255L-66.0445 375.143Z" fill="#C6C6E8"/>
<path fill-rule="evenodd" clip-rule="evenodd" d="M-8.76913 350.233C-8.76913 350.233 85.7846 341.489 127.26 270.276C155.574 221.659 210.196 207.775 249.233 265.066C261.089 282.467 280.939 314.061 300.568 314.061C320.197 314.061 333.907 316.31 344.248 316.31C401.97 316.31 408.297 254.305 470.721 254.305C533.728 254.305 548.058 321.734 623.29 346.178C698.521 370.622 795.44 354.214 642.48 404.573C489.52 454.932 -8.76913 350.233 -8.76913 350.233Z" fill="#D6AECC"/>
<path fill-rule="evenodd" clip-rule="evenodd" d="M167 342.889C249.058 342.889 258.887 268.926 312.284 268.702C367.419 268.471 373.318 341.751 483.005 341.689C592.692 341.626 587.154 400.241 647.317 448.96C707.48 497.68 325.613 424.263 325.613 424.263C325.613 424.263 50.7693 342.889 167 342.889Z" fill="white"/>
<rect x="55.2" y="96" width="69.6" height="44.4" rx="12" fill="url(#paint0_linear_1_2)"/>
<path d="M74.7375 94.0729V140.4" stroke="#4F3F5A" stroke-width="2.4"/>
<path d="M105.6 120.073V140.63" stroke="#404065" stroke-width="2.4"/>
<path d="M105.6 94.0729V120.879" stroke="#4F3F5A" stroke-width="2.4"/>
<path d="M105.6 109.963H124.8" stroke="#4F3F5A" stroke-width="2.4"/>
<path d="M99.6335 126.763H124.8" stroke="#404065" stroke-width="2.4"/>
<path d="M55.2 109.963H74.4" stroke="#4F3F5A" stroke-width="2.4"/>
<path d="M55.2 126.763H74.4" stroke="#4F3F5A" stroke-width="2.4"/>
<path d="M74.7375 109.963H83.2184L98.69 126.763H99.8367" stroke="#4F3F5A" stroke-width="2.4"/>
</g>
<defs>
<filter id="filter0_d_1_2" x="-337" y="-241" width="1208" height="1008" filterUnits="userSpaceOnUse" color-interpolation-filters="sRGB">
<feFlood flood-opacity="0" result="BackgroundImageFix"/>
<feColorMatrix in="SourceAlpha" type="matrix" values="0 0 0 0 0 0 0 0 0 0 0 0 0 0 0 0 0 0 127 0" result="hardAlpha"/>
<feOffset dy="96"/>
<feGaussianBlur stdDeviation="168.5"/>
<feColorMatrix type="matrix" values="0 0 0 0 0.145098 0 0 0 0 0.121569 0 0 0 0 0.215686 0 0 0 0.2 0"/>
<feBlend mode="normal" in2="BackgroundImageFix" result="effect1_dropShadow_1_2"/>
<feBlend mode="normal" in="SourceGraphic" in2="effect1_dropShadow_1_2" result="shape"/>
</filter>
<linearGradient id="paint0_linear_1_2" x1="55.2" y1="96" x2="55.2" y2="140.4" gradientUnits="userSpaceOnUse">
<stop stop-color="white"/>
<stop offset="1" stop-color="#D8D8D8"/>
</linearGradient>
<clipPath id="clip0_1_2">
<rect width="534" height="334" fill="white"/>
</clipPath>
</defs>
</svg>
