<svg width="69" height="43" viewBox="0 0 69 43" fill="none" xmlns="http://www.w3.org/2000/svg">
<path fill-rule="evenodd" clip-rule="evenodd" d="M36.5996 39.5997C41.6632 35.3078 44.8733 28.9259 44.8733 21.8C44.8733 14.6741 41.6632 8.29219 36.5996 4.00029C39.8556 1.97255 43.7074 0.800003 47.8352 0.800003C59.5239 0.800003 68.9994 10.202 68.9994 21.8C68.9994 33.398 59.5239 42.8 47.8352 42.8C43.7074 42.8 39.8556 41.6275 36.5996 39.5997Z" fill="white"/>
<path fill-rule="evenodd" clip-rule="evenodd" d="M32.9996 4.02244C29.7397 1.98109 25.8791 0.800003 21.7408 0.800003C10.0648 0.800003 0.599609 10.202 0.599609 21.8C0.599609 33.398 10.0648 42.8 21.7408 42.8C25.8791 42.8 29.7397 41.6189 32.9996 39.5776C27.9566 35.2859 24.761 28.9136 24.761 21.8C24.761 14.6864 27.9566 8.31413 32.9996 4.02244Z" fill="white"/>
<path fill-rule="evenodd" clip-rule="evenodd" d="M34.8 38.0004C39.5579 34.1819 42.6 28.3433 42.6 21.8C42.6 15.2567 39.5579 9.41807 34.8 5.5996C30.0421 9.41807 27 15.2567 27 21.8C27 28.3433 30.0421 34.1819 34.8 38.0004Z" fill="white"/>
</svg>
